<?xml version="1.0" encoding="utf-8"?>
<!-- Generator: Adobe Illustrator 25.3.1, SVG Export Plug-In . SVG Version: 6.00 Build 0)  -->
<svg version="1.1" id="Layer_1" xmlns="http://www.w3.org/2000/svg" xmlns:xlink="http://www.w3.org/1999/xlink" x="0px" y="0px"
	 viewBox="0 0 370.86957 247.73914" enable-background="new 0 0 370.86957 247.73914" xml:space="preserve">
<g>
	<path fill-rule="evenodd" clip-rule="evenodd" fill="#0A071A" d="M346.36087,180.17297
		c-1.98999,6.04004-6.39014,11.0498-8.88013,11.8999c-0.51001,0.18018-1.06982,0.36011-1.68994,0.54004
		c-0.63989,0.19995-1.18994,0.60986-1.57983,1.1499c-4.17017,5.75-10.26025,10.88013-16.19019,11.29004
		c-6.46997,0.43994-12.26001,0.95996-16.97998,0.72021c-5.11011-0.25-9.04004-1.89014-12.07983-4.65015
		c-1.21021-1.09985-2.82007-1.65015-4.46021-1.57007c-22.11987,1.14014-51.44995,1.07007-93.11987-1.52002
		c-1.20996-0.06982-2.34009,0.61011-2.83008,1.72998c-4.20996,9.66016-11.27002,16.01025-19.40991,16.12012
		c-14.26001,0.18994-17.98999,0.25-18.82007,0.26001c0,0,0,0-0.01001,0h-0.16992
		c-10.86011,0.13989-20.33008-10.8501-23.87012-26.17993c-0.25-1.09009-1.13989-1.92017-2.23999-2.15015l-60.66992-12.26001
		c-0.51001-0.09985-1,0.20996-1.15002,0.70996c-2.37,8.24023-6.70007,13.77002-11.83997,13.94019
		c-8.58008,0.28979-10.84009,0.35986-11.3501,0.37988h-0.10986c-11.63013,0.38989-15.26001-19.61987-15.8501-32.3999
		c-10.19995-28.64014,4.05005-70.51001,12.35999-85.64014c0,0,19.20007-38.55982,53.14001-38.55982h0.03003
		c116.8501-10.47021,153.73999,15.83984,180.60986,33.33985c8.82007,5.72998,16.5,11.14014,22.04004,15.16016
		c5.82007,4.21997,9.30005,6.92993,9.30005,6.92993c0.01001,0,0.02002,0.01001,0.03003,0.01001
		C375.8909,114.38293,346.32083,180.07288,346.36087,180.17297z"/>
	<path fill-rule="evenodd" clip-rule="evenodd" fill="#E60048" d="M333.75076,104.76282
		c-11.49612-8.72806-24.78763-12.82417-30.7597-14.61144c-0.17773-0.05319-0.19073-0.30419-0.01648-0.36783
		c3.95209-1.44318,4.50467-7.55077,4.67633-10.98069c0.13989-3.02979-11.29004-3.77002-15.38013,1.90015
		c-0.45996,0.63989-0.80005,1.22998-1.03003,1.78003c5.82007,4.21997,9.30005,6.92993,9.30005,6.92993
		c-1.86987,1.32983-25.45996,3.20996-52.69995,4.22998c-22.67993,0.84009-47.92993,1.3999-65.25-0.08008
		c-18.91016-1.60986-19.94995-3.30005-25.8999-12.96997c-9.31006-15.12988-31.3501-44.87012-61.4502-46.37012
		c-48.15991-2.3999-52.47998,34.16016-67.3999,42.25c-1.76001,0.9502-2.89001,2.77002-3.13,4.76025
		c-2.34998,19.59985-5.73999,30.38989-7.26001,34.5c-0.53003,1.41992-0.76001,2.92993-0.71008,4.44995
		c1.61011,41.72998,6.32007,38,6.32007,38c-0.43994-37.19995,18.29004-48.96997,29.72998,6.05981
		c0.45996,2.24023,2.20996,3.97998,4.43994,4.43018l67.20007,13.36987c-0.33997-71.96997,46.53015-70.25,50.4801,6.05005
		c0.09985,1.8999,1.60986,3.41992,3.51001,3.52002l28.02002,1.39014c4.33984,0.21973,8.61987-1.06006,12.11987-3.64014
		c8.30005-6.12988,24.53003-17.22998,34-17.70996l91.11011-4.69995c3.73999-0.19019,4.3999,6.70996,2.68994,13.21997
		C355.75076,164.27307,361.59085,125.82288,333.75076,104.76282z M142.42081,91.64294
		c-1.00989-0.11011-2.02991-0.20996-3.0199-0.31006c-0.01001,0-0.03003-0.01001-0.05005-0.01001
		c-3.15002-0.43994-4.19995-5.93994-5.6001-7.63989c-6.29993-7.72998-23.03992-8.36011-22.66992-4.51001
		c0.27002,2.69995,1.10999,6.47998,3.15991,9.5C32.57084,79.83289,35.20084,77.79285,41.6409,66.203
		c27.63989-49.73022,81.17993-27.71997,104.03992,20.78003C146.76077,89.29285,144.92081,91.90295,142.42081,91.64294z"/>
	<path fill-rule="evenodd" clip-rule="evenodd" fill="#FFFFFF" d="M170.08789,179.05911
		c0.64001-16.89578-7.98671-31.03204-19.26149-31.58002c-11.28569-0.53799-20.95265,12.71175-21.59253,29.60753
		c-0.62987,16.8958,7.99596,31.04202,19.27162,31.58002C159.7903,209.21461,169.45789,195.95515,170.08789,179.05911z
		 M150.43086,185.89326c-2.97044-0.14932-5.24963-3.9153-5.0818-8.41821c0.1678-4.50269,2.71381-8.03929,5.68423-7.88997
		c2.98044,0.14958,5.24974,3.91531,5.08205,8.41823C155.94678,182.51596,153.40154,186.0426,150.43086,185.89326z
		 M44.57084,161.88293c-0.53003-13.05005-5.28003-23.83008-10.60999-24.08008c-5.31995-0.26001-9.21008,10.12012-8.68006,23.16992
		c0.54004,13.04004,5.29004,23.83008,10.61011,24.08008C41.22086,185.30286,45.10086,174.93298,44.57084,161.88293z
		 M35.67081,167.453c-1.40002-0.07007-2.66003-2.94995-2.79993-6.42993c-0.14014-3.48022,0.87988-6.24023,2.28003-6.17017
		c1.40991,0.07007,2.65991,2.94995,2.80994,6.42017C38.10086,164.75305,37.08084,167.52307,35.67081,167.453z M344.08542,115.24554
		c0.47397,5.58919-9.42661,8.72108-9.14566,4.48676c0.29053-4.37868,2.34848-11.08849-1.18719-14.97143
		C338.20685,106.44271,343.47684,112.19815,344.08542,115.24554z M254.7352,126.02424
		c-67.02643,2.05972-70.03291-23.4473-70.03291-23.4473c33.52272,4.61275,58.83159,11.75592,71.68382,20.24918
		C257.79102,123.75453,258.50562,125.90837,254.7352,126.02424z"/>
</g>
</svg>
