<svg id="Layer_1" data-name="Layer 1" xmlns="http://www.w3.org/2000/svg" viewBox="0 0 971 571"><defs><style>.cls-1{fill:#fff;}</style></defs><path class="cls-1" d="M286,571q21.13-3.39,42.26-6.78c39.07-6.23,78.17-12.31,117.21-18.74,11.79-2,23.49-4.55,35.1-7.4,23.74-5.81,37-21.64,40.44-45.31,2.53-17.6,3.73-35.4,5.12-53.14,4.11-52.6,8.09-105.23,21.12-156.6,5.74-22.65,13.16-44.74,27.35-63.81,8.77-11.8,19.75-20.66,34.3-24.42,17.88-4.62,33.27-.07,44.9,14A146.17,146.17,0,0,1,671.32,236c3.8,7.55,9.76,12.36,16.11,18.13a9,9,0,0,0,0-2.11c-7.38-21.47-18.61-40.44-36-55.45-16.22-14-35.33-18-56.22-17.38-29.61.86-52.73,15.63-73.48,34.38-26.06,23.56-51.19,48.17-76.38,72.67-31.07,30.21-62.35,60.14-96.9,86.43-31,23.62-64.26,42.59-102.7,51.62-33.7,7.92-67.76,9.86-102.17,8.33a28.42,28.42,0,0,1-3.17-.68c11-1,20.51-1.85,30-2.68,66.69-5.82,126.45-28.55,177.81-72.28,39.62-33.73,76.23-70.62,113.62-106.72C480.78,232,499.72,213.61,520.05,197c20.1-16.42,44-25.25,70.22-26.9.45,0,.87-.24,1.42-1.15-3.67-.66-7.33-1.43-11-2a454.33,454.33,0,0,0-80.24-4c-70.72,2.46-137.32,19-198.57,55.89-26,15.67-49.31,34.56-73,53.21-28.38,22.37-56.27,45.43-87.63,63.64a90.92,90.92,0,0,1-20.67,8.45c-10.49,3-18.91-1.19-22.2-11.54-2.69-8.46-3.65-17.49-5.2-26.31-2.67-15.2-4.22-30.67-8-45.58-5.83-22.86-21.51-36.39-44.32-42a152.36,152.36,0,0,1-18.11-5.5C11,208.71,3.26,200.3,0,188v-7c1-2.91,2.94-3.73,6.05-3.75q40.25-.23,80.48-.82,143-2.15,285.9-4.51c5.41-.09,10.79-1.75,16.18-2.67-.07-.47-.15-.93-.22-1.39L42.62,171.32v-1.27c46.46-1.23,92.91-2.86,139.38-3.6,73.32-1.17,146.64-1.47,220-2.79,16.34-.3,32.63-3.29,49-5,1.72-18.5.66-35.58-5.54-52.15C438.82,88.75,427.05,76.11,409,69.91c-9.73-3.36-19.5-7.08-29.57-8.88C353.61,56.4,327.69,51.89,301.62,49c-27.27-3.07-54.74-4.49-82.16-6.15-20.63-1.25-41.3-1.76-62-2.6,1.65.08,3.32.09,5,.08q113-1,226-1.9c36.33-.26,72.66-.22,109-.18,4.82,0,9.63.8,15.91,1.36C487.68,77.27,469.63,117,451.43,157.3c1.55,0,2.35,0,3.14,0q35.57-3,71.12-6a9.76,9.76,0,0,0,4.48-1.75c7.51-5.24,15-10.51,22.29-16.07,1.36-1,2.16-3.41,2.35-5.25.52-5.27-.12-10.74,1-15.85,4-18.76,17.45-27.49,35-31.18,24-5,48.06-2.94,72,.46,6.9,1,13.74,2.34,21.15,3.62-.59-1-.68-1.41-.91-1.57-24.44-17-48.38-34.85-73.51-50.78-21.26-13.49-43.26-11.56-64.35,2.37a122.24,122.24,0,0,0-36.85,38.17c-11.93,19.24-23.07,39-34.54,58.49-1.35,2.29-2.66,4.61-4,6.91q-1.86,3.18-3.74,6.34c12.93-31,26.55-61.51,45-89.59,3-4.59,6.21-9.08,9-13.83,2.53-4.37,1.28-7-3.66-7.88a60.59,60.59,0,0,0-10.42-.9q-87.74-.19-175.48-.26-75-.06-150,0c67.81-2.15,135.62-3.36,203.43-4.5Q458.1,27,532.33,25.82a9.48,9.48,0,0,0,4.78-.95c6.46-4.18,12.77-8.6,19-12.88-135-6-270.35,1-404.76-.5,5.21-.34,11.35-.84,17.5-1.13,34.61-1.67,69.2-3.61,103.82-4.85,51-1.81,101.92-3.09,152.88-4.63C432.39.68,439.2.3,446,0H571a67.18,67.18,0,0,0,6.87.87c16,.41,31.92,1.56,47.44,5.91,39.43,11,75.77,28.9,110.74,49.85a15,15,0,0,0,6.33,2.45c19.12,1.17,38.26,2.06,57.39,3.13,23.12,1.29,46.24,2.48,69.34,4.16a83.29,83.29,0,0,1,19.48,3.94c7.24,2.34,9.14,7,6.5,14.15a90.92,90.92,0,0,1-5.52,11.15c-1.91,3.56-4,7-6.27,10.9,4,.65,7.12,1.12,10.22,1.66,17.33,3,33.39,8.75,46.91,20.57,15.06,13.15,22.07,30.51,26.36,49.32,1.66,7.25,2.82,14.62,4.21,21.94v26c-4.43,14-1.29,28,0,42v47c-.3,1.79-.7,3.57-.88,5.37-1.76,17-2.67,34.22-5.47,51.09-2.08,12.53-6.25,24.77-10.16,36.92-2.44,7.59-8.19,12.48-16.23,14-6.2,1.17-12.44,2.49-18.71,2.85-20.14,1.15-40.29,1.46-58.06-1.19,15.56-1.53,33.29-3.05,51-5.12,7.1-.84,14.47-1.59,20.43-5.67-15.07-36.1-17.14-73.78-17.8-111.61S916.7,226,926.62,189a22.79,22.79,0,0,0-2.76,5.31c-6.14,16.19-8.6,33.18-9.87,50.27-3.17,42.64-.94,85.26,1.55,127.86.55,9.4,1.1,18.8,1.65,28.13-2.54.54-4.35.83-6.11,1.32-17.26,4.82-35.41,7.68-51.6,14.91-48,21.43-95.28,44.55-142.76,67.17a19.63,19.63,0,0,0-7.25,6.33c-29.06,42.15-67,69.83-119.48,74.43-45.4,4-90.68,1.93-136-2.65l93.41-5c-.85-1-1-1.4-1.26-1.51-9.83-4-19.65-8.06-29.53-11.93a6.84,6.84,0,0,0-4.12.13c-11,3.29-21.67,7.94-32.85,9.8q-35.4,5.89-71.19,9.34c-27,2.62-54.13,4-81.2,5.92-9.1.65-18.19,1.41-27.29,2.12ZM842.89,348.23c-.9,9.41-5.3,16.34-11.1,22.51C821,382.17,808,390.52,794.35,397.94c-17.69,9.62-35.6,18.84-53.43,28.19A13.33,13.33,0,0,0,733.5,436c-1.3,6.13-3.69,12.05-5.75,18-1.2,3.49-2.67,6.89-4.27,11,1.48-.57,2.12-.76,2.7-1.06,32.66-16.54,65.43-32.86,97.91-49.75,15.47-8.05,31-16.27,45.36-26.06,14.53-9.91,22.64-24.8,23.76-42.62,1.31-20.94,1.84-41.93,2.95-62.88,1.34-25.45,3.2-50.85,9-75.76,3-12.84,6.61-25.53,15-36.09,10.89-13.65,26.2-13.18,36.35.95.48.67.88,1.42,1.39,2.07s1.07,1.15,1.61,1.72c-8.76-25.84-24.33-44.9-51.44-52.59-18.6-5.27-37.74-5.86-56.86-6.86-31.89-1.67-58.55,9.09-80.57,32.38a455.58,455.58,0,0,0-53.53,69c-6,9.51-11.71,19.25-17.55,28.89,15.67-50.67,41.31-95,82.87-129.22a239.52,239.52,0,0,0-56.1,10.42c-3.08,1-3.64,2.75-3.48,5.57.4,7-2.74,11.8-9.53,14-3.16,1-6.29,2.21-9.52,2.93-22.39,5-45.18,5.47-68,6.15-8.83.27-17.58,2.79-26.36,4.28l0,1.35c4.31,1.63,8.66,3.15,12.92,4.9,41.29,17,65.47,47.08,70.68,91.85a9.6,9.6,0,0,0,2.31,4.73c28.66,33.6,43.06,72.61,44.59,116.58.11,3,1.07,6,1.64,9,3.05-1.44,6.8-2.19,9-4.44,8.19-8.21,15.88-16.92,23.91-25.61C797,357.77,819.61,352.63,842.89,348.23ZM541.78,150.42c.54.68.62.88.76.93a6.73,6.73,0,0,0,1.39.41c9.9,1.54,19.07,1.08,25.83-8,4.49-6,9.88-6.55,17.64-5.06,35.23,6.77,70.66,3.53,105.93-.56,13.36-1.55,15.25-5,12.66-18-2.65-13.35-9.55-23-23.87-25.43-8.84-1.52-17.67-3.33-26.58-4.31-18.25-2-36.55-2.77-54.76.51-17.91,3.21-26.84,13.5-28.18,31.61A10.37,10.37,0,0,1,569,129C560.15,136.24,551,143.18,541.78,150.42ZM531.6,521.56a30.74,30.74,0,0,0,2.89,1.58c47.12,19.47,90.21,12,128.22-21.2,30.92-27,46.37-62.4,49.54-103.07,3.48-44.54-8.42-84.51-38-118.34-23.18-26.48-52.4-41.56-88.05-42.9-1.7-.06-4.28,0-5,1-2,2.87-3.31,6.28-5.07,9.85a24.59,24.59,0,0,0,2.85.35c34.89-1,63,13.2,85.52,39.06s33.59,56.76,34.7,91c1.43,43.9-11.92,82.29-43.94,113.24-31.21,30.16-75.84,37.78-115.16,20-1.15-.52-2.4-.84-3.82-1.33C534.69,514.39,533.26,517.72,531.6,521.56Zm64.81-93.24c-6.36,0-11.54.57-16.51-.19-3.7-.56-4.92.34-6,3.66a149.15,149.15,0,0,1-27.57,51.1c-3.88,4.67-6.36,9.34-7.15,15.4-.49,3.8.44,5.77,3.79,6.71,10.19,2.88,20.32,6,30.64,8.3,8.25,1.81,8.41,1.33,12.28-6.22,7-13.57,10.16-28.2,10.85-43.25C597.32,452,596.58,440,596.41,428.32Zm24.52-55c12,0,24-1.22,35.72.35s23.24,5.92,35.15,9.14c-.36.58,0,.31,0,.05-.37-19.15-3.94-37.64-11.64-55.22-.62-1.44-3-3.13-4.39-3-7.55.47-15.31.55-22.55,2.48-16.79,4.49-29.93,15.15-41.82,26.15C614.91,360.67,618.1,367.35,620.93,373.28Zm-25-30.76c8.17-25.87,21.05-49.33,41.75-68.62C623.45,264.27,608.57,258.3,592,257a5.5,5.5,0,0,0-4.23,2.46A101.36,101.36,0,0,0,581,273.81c-6.19,17.33-7.74,35.29-6.62,53.55.32,5.22.84,10.42,1.22,15.16Zm15.33,75.21c15.44,22.95,24.61,48.84,27.83,76.84.85-.15,1.22-.12,1.46-.29.84-.54,1.64-1.14,2.42-1.75,11.46-8.9,20.33-20,28.35-32,3.87-5.8,3.68-10.57.77-16.49-9.64-19.61-25-33.44-43.59-44-2.39-1.36-4.89-2.53-7-3.6C618,403.6,614.83,410.27,611.24,417.73Zm349-123.17c-.59-11.11-.7-26.65-2.41-42-1.61-14.49-4.69-28.83-7.6-43.15-.72-3.59-2.87-7.11-5.15-10.06-.89-1.15-4.26-1.4-5.93-.7-2.22.93-2.84,3.06-1.35,5.83a36.34,36.34,0,0,1,4.13,11.16c2.32,14.59,4.88,29.2,6.08,43.91,2.91,35.46,2.23,70.92-3.33,106.11a100.77,100.77,0,0,1-7.44,24.65c-1.93,4.35-.38,6.36,2.1,8.38,3.28,2.67,5.9.19,7.21-2.54a74.4,74.4,0,0,0,5.5-14.38C958.72,354.57,959.41,326.75,960.2,294.56ZM766.82,75.72c-.17.47-.33.94-.49,1.4,13.11,8.71,26.19,17.47,39.39,26a5.09,5.09,0,0,0,4.44,0c8-4.76,15.86-9.71,23.65-14.78,1.52-1,2.54-2.73,4.72-5.18C814,77.85,790.31,77.67,766.82,75.72ZM662,234c-13.29-31.16-40.88-38.28-58.55-21.86C624.52,215.18,643.62,222.51,662,234Zm-92.27,111.7,1.77.16a18.6,18.6,0,0,0,.79-4.28c-.43-8.3-1.21-16.59-1.5-24.89-.69-20.43,2.58-40.05,12.59-58.2a7.81,7.81,0,0,0,.39-2c-5.18.11-5.33,4.45-6.61,7.18-10.62,22.63-10.77,46.64-8.84,70.87C568.6,338.21,569.23,341.92,569.71,345.65Zm32.12,79.69-1.81-.06c0,14.86.2,29.72-.06,44.57-.28,15.51-5.68,29.74-11.74,44a10.05,10.05,0,0,0,4.58-4.24c10.07-20.13,12.13-41.66,10.83-63.72C603.22,439,602.44,432.2,601.83,425.34Zm76.17,21,1.14-.11c-.31-2-.23-4.1-1-5.88-7.77-18-20.72-31.53-37.3-41.69-6-3.68-12.24-7-18.37-10.45l-1.45,2c1.38,1.26,2.55,2.91,4.15,3.73,16,8.24,30.92,17.82,41.39,32.85C670.86,432.91,674.21,439.75,678,446.3ZM675.48,319l.44-1.65c-1.95-.58-3.89-1.64-5.84-1.67-26.39-.32-44.91,15.11-62.79,31.7-.53.5-.26,1.87-.36,2.84,1-.16,2.16,0,2.85-.53,1.72-1.29,3.17-2.94,4.8-4.36,14.32-12.43,29.26-23.73,49-25.71C667.56,319.23,671.53,319.2,675.48,319Zm45.79-198.73,1.34,1.52a303.82,303.82,0,0,1,68.62-10.89c2-.1,3.94-1.27,5.9-2l-.39-1.57c-8.92.49-18,.27-26.75,1.63-15.2,2.35-30.27,5.64-45.36,8.69C723.39,118,722.38,119.38,721.27,120.27ZM559.8,417.52c-3-6.78-5.48-12.7-8.16-18.55a14.45,14.45,0,0,0-2.5-3c-.71,1.16-1.94,2.27-2,3.47-.56,7.46-.89,14.94-1.25,22.41-.1,2,0,4.05,0,7.49ZM857.88,105c2.39-.13,5.73.73,7-.53,7.47-7.26,14.59-14.9,21.46-22.73,1-1.18.15-4,.15-6.23C879.8,88.54,867.26,94.7,857.88,105ZM549.08,373.71l.9.05c3.32-6.2,6.67-12.39,9.93-18.63a2.81,2.81,0,0,0,.08-2.32c-2-3.42-4.26-6.74-6.42-10.09l-1.11.29Q550.77,358.37,549.08,373.71Zm18.57-219.92c12-.36,22.82,6.05,35.89,1.43-2.62-.6-4-1-5.35-1.22-7.15-1.38-14.38-2.44-21.43-4.22C573,148.82,570.42,149.43,567.65,153.79Zm-2.38,268.58c-.12-.64-.23-1.28-.35-1.92-1,0-2.63-.45-3.08.07-5.14,6-13.36,9.21-17.1,16.56l1.46,1.53Z" transform="translate(0 0)"/><path class="cls-1" d="M393.93,406.73c-9.78,2.72-12.23,6-12.89,14.44q-1.31,16.4-3.43,32.73C375,474.55,363.22,489.37,347.33,502,328,517.26,306.1,526,282,529.84c-1.79.28-3.56.7-6.94,1.37,2.17-2.2,3.33-3.39,4.51-4.55,10.88-10.73,18.59-23.19,19.45-38.79.7-12.71-6.88-20-19.58-18.53a320.92,320.92,0,0,1-60.87,1.41c-23.68-1.7-47.31-4.2-70.95-6.35l.08-2.26c10.07,0,20.15.22,30.21,0,32.32-.8,64.54-2.23,95.82-11.86a323.12,323.12,0,0,0,112.88-61.34c6.66-5.54,13.29-11.15,20.26-16.26a50.82,50.82,0,0,1,12.27-6.5c8.3-3,13.05.19,13.14,9.09.11,12.16.3,24.38-.75,36.47-1.57,18.05-3.32,36.16-6.57,54-3.81,20.88-16.18,36.19-35.11,45.95-30.6,15.79-63.39,23.81-97.45,27.24-1.15.12-2.32,0-4.5,0,10.75-3.51,20.66-6.44,30.34-10,14.87-5.43,29.79-11,42-21.49,19.51-16.72,29.9-38.39,32.77-63.7,1.08-9.58,1.5-19.25,2-28.88C395.12,412.26,394.34,409.67,393.93,406.73Z" transform="translate(0 0)"/><path class="cls-1" d="M216.37,366c-4.65-4.56-11.9-6.15-11.82-13.68,0-2.72,1.63-5.42,3.08-8.13,2.78,9.58,10.52,11.73,18.28,12.57,20.9,2.25,40.12-2.51,56.41-16.26,12.26-10.34,12.51-24.8,1.91-35.07,12-2.28,24.82-4.11,37.26-7.26,10.44-2.64,19.95-7.67,26-17.32a33.25,33.25,0,0,0,3.62-7.62c3.48-11.25-1.14-19.07-12.65-21.4-15.15-3.06-29.47-.11-43,6.78-6.41,3.26-12.48,7.21-18.82,10.59,13.88-11.07,29-20,46.78-22.71,16.25-2.44,32.7-3.5,49.06-5.25,5.29-.56,10.58-1.21,15.81-2.13,1.76-.31,3.35-1.59,5-2.43l-.27-1.39c-2.35-.14-4.7-.44-7.05-.39-24.32.51-48.47,2.5-72.28,7.86-12.1,2.73-22.82,8.44-32.79,15.34C261.7,271.3,243,285.14,224,298.76a15.17,15.17,0,0,1-4.44,2.63,13.72,13.72,0,0,1,1.47-1.88q26-23,52.1-45.92c17-15,37.09-22.67,59.26-26.53,25.19-4.38,50.52-5.92,76-6.56a47.89,47.89,0,0,1,7.47.38c7.4,1,10.35,6.91,6.8,13.55a16.56,16.56,0,0,1-3,4c-31.26,30.19-61.29,61.71-95.59,88.59-34.65,27.17-74,43.85-117.38,50.73-17.9,2.84-36,4.64-53.95,6.88a34.25,34.25,0,0,1-4.07,0C171.5,379,194.87,376.41,216.37,366Z" transform="translate(0 0)"/><path class="cls-1" d="M790.1,343.83c3.17-8.51,6.56-16.11,8.84-24,4.51-15.67,4.72-31.84,4.66-48-.09-22.82.28-45.63.46-68.45a23.26,23.26,0,0,1,.13-2.5c1.22-11.42,3.66-14.36,15.07-15.11,9.62-.63,19.31-.11,29,0,2.39,0,4.64.61,4.89-3.09.21-3.16-1.25-4.24-3.94-4.4-13.13-.77-26.25-1.67-39.27,1.49-6.52,1.58-10.58,5.58-10.9,12-.86,17.26-1.87,34.57-1.41,51.82.74,27.4.73,54.65-6.74,81.28-1.89,6.74-5,13.13-8,19.51,8.36-27.56,3.29-55.62,3.54-83.4.2-23.33-.19-46.66-.18-70a50.29,50.29,0,0,1,1.14-9.92c2.24-10.87,8-16,20.48-16.6,17.63-.84,35.3-1.08,52.95-1.16,9.17,0,11.05,2.36,9.14,11.27-7.73,36.21-10.13,73.14-15.18,109.72-1.86,13.46-5.11,26.74-7.92,40.06-1.92,9.11-7.83,13.62-17,14.73-10.9,1.3-21.72,3.26-32.59,4.81A54.15,54.15,0,0,1,790.1,343.83Z" transform="translate(0 0)"/></svg>